<svg width="72" height="112" viewBox="0 0 72 112" fill="none" xmlns="http://www.w3.org/2000/svg">
    <g clip-path="url(#clip0_6641_2)">
        <path d="M11 20V84" stroke="#4555A5" stroke-width="6" stroke-miterlimit="10"/>
        <path d="M61 20V84" stroke="#4555A5" stroke-width="6" stroke-miterlimit="10"/>
        <path d="M11 84C11 90.6304 13.6339 96.9893 18.3223 101.678C23.0107 106.366 29.3696 109 36 109" stroke="#4555A5" stroke-width="6" stroke-miterlimit="10"/>
        <path d="M61 84C61 90.6304 58.3661 96.9893 53.6777 101.678C48.9893 106.366 42.6304 109 36 109" stroke="#4555A5" stroke-width="6" stroke-miterlimit="10"/>
        <path d="M36 20V109" stroke="#4555A5" stroke-width="6" stroke-miterlimit="10"/>
        <path d="M11 81H61" stroke="#4555A5" stroke-width="6" stroke-miterlimit="10"/>
        <path d="M11 53H61" stroke="#4555A5" stroke-width="6" stroke-miterlimit="10"/>
        <path d="M68 0H4C1.79086 0 0 1.79086 0 4V24C0 26.2091 1.79086 28 4 28H68C70.2091 28 72 26.2091 72 24V4C72 1.79086 70.2091 0 68 0Z" fill="#4555A5"/>
    </g>
    <defs>
        <clipPath id="clip0_6641_2">
            <rect width="72" height="112" fill="white"/>
        </clipPath>
    </defs>
</svg>
